<svg width="480" height="600" viewBox="0 0 480 600" fill="none" xmlns="http://www.w3.org/2000/svg">
<path d="M0 360H120V600H0V360Z" fill="white"/>
<path d="M0 0H120V120H0V0Z" fill="white"/>
<path d="M0 180H120V300H0V180Z" fill="white"/>
<path d="M360 120H480V480H360V120Z" fill="white"/>
<path d="M120 0H360V120H120V0Z" fill="white"/>
<path d="M120 480H360V600H120V480Z" fill="white"/>
<path d="M240 240H360V360H240V240Z" fill="white"/>
<path d="M240 240C232.121 240 224.319 241.552 217.039 244.567C209.759 247.583 203.145 252.002 197.574 257.574C192.002 263.145 187.583 269.759 184.567 277.039C181.552 284.319 180 292.121 180 300C180 307.879 181.552 315.681 184.567 322.961C187.583 330.241 192.002 336.855 197.574 342.426C203.145 347.998 209.759 352.417 217.039 355.433C224.319 358.448 232.121 360 240 360V240Z" fill="white"/>
<path d="M480 120C480 104.241 476.896 88.6371 470.866 74.078C464.835 59.5189 455.996 46.2902 444.853 35.1472C433.71 24.0042 420.481 15.165 405.922 9.13445C391.363 3.10389 375.759 -6.88831e-07 360 0V120H480Z" fill="white"/>
<path d="M360 600C375.759 600 391.363 596.896 405.922 590.866C420.481 584.835 433.71 575.996 444.853 564.853C455.996 553.71 464.835 540.481 470.866 525.922C476.896 511.363 480 495.759 480 480H360V600Z" fill="white"/>
</svg>
